<?xml version="1.0" encoding="utf-8"?>
<!-- Generator: Adobe Illustrator 27.0.0, SVG Export Plug-In . SVG Version: 6.00 Build 0)  -->
<svg version="1.1" id="Layer_1" xmlns="http://www.w3.org/2000/svg" xmlns:xlink="http://www.w3.org/1999/xlink" x="0px" y="0px"
	 viewBox="0 0 24 24" style="enable-background:new 0 0 24 24;" xml:space="preserve">
<style type="text/css">
	.st0{fill:#FFFFFF;}
</style>
<path class="st0" d="M9.6,11c-0.5,0-1,0.5-1,1.1c0,0.6,0.4,1.1,1,1.1c0.5,0,1-0.5,1-1.1C10.6,11.4,10.1,11,9.6,11z M13.1,11
	c-0.5,0-1,0.5-1,1.1c0,0.6,0.4,1.1,1,1.1c0.5,0,1-0.5,1-1.1C14,11.4,13.6,11,13.1,11z"/>
<path class="st0" d="M17.7,3H4.9C3.9,3,3,3.9,3,5c0,0,0,0,0,0v12.8c0,1.1,0.9,2,1.9,2h10.8L15.2,18l1.2,1.1l1.1,1.1l2,1.8V5
	C19.6,3.9,18.8,3,17.7,3C17.7,3,17.7,3,17.7,3z M14,15.4c0,0-0.3-0.4-0.6-0.8c1.2-0.4,1.7-1.1,1.7-1.1c-0.4,0.3-0.8,0.4-1.1,0.6
	c-1.2,0.5-2.5,0.6-3.8,0.4c-0.5-0.1-0.9-0.2-1.4-0.4c-0.2-0.1-0.5-0.2-0.7-0.3c0,0-0.1,0-0.1,0c0,0,0,0,0,0
	c-0.2-0.1-0.3-0.2-0.3-0.2s0.5,0.8,1.7,1.1c-0.3,0.4-0.6,0.8-0.6,0.8C6.6,15.3,5.8,14,5.8,14c0-3.1,1.4-5.5,1.4-5.5
	c1.4-1,2.7-1,2.7-1L10,7.5C8.2,8,7.5,8.8,7.5,8.8S7.7,8.7,8,8.5c1-0.4,1.8-0.6,2.2-0.6c0.1,0,0.1,0,0.2,0C12,7.7,13.7,8,15.1,8.8
	c0,0-0.8-0.7-2.4-1.2l0.1-0.2c0,0,1.3,0,2.7,1c0,0,1.4,2.5,1.4,5.5C16.9,14,16.1,15.3,14,15.4z"/>
</svg>
