<?xml version="1.0" encoding="utf-8"?>
<!-- Generator: Adobe Illustrator 27.0.0, SVG Export Plug-In . SVG Version: 6.00 Build 0)  -->
<svg version="1.1" id="Layer_1" xmlns="http://www.w3.org/2000/svg" xmlns:xlink="http://www.w3.org/1999/xlink" x="0px" y="0px"
	 viewBox="0 0 371 218" style="enable-background:new 0 0 371 218;" xml:space="preserve">
<style type="text/css">
	.st0{enable-background:new    ;}
	.st1{fill:#FFFFFF;}
	.st2{fill:#190000;}
	.st3{fill:#794A81;}
	.st4{fill:#C6168D;}
</style>
<g class="st0">
	<path class="st1" d="M83.6,169.4H51L-0.1,28.9h36.6l31.3,99.7h0.8l31-99.7h36L83.6,169.4z"/>
	<path class="st1" d="M131.4,169.4V28.9h32.8v111h52.2v29.6h-85V169.4z"/>
	<path class="st1" d="M338.8,169.4l0.8-99.5H339l-35.1,99.5H281L246.7,70h-0.7l1,70v29.5h-30.7V28.9h46.4l30.7,90.1h0.8l29.4-90.1
		h47.1v140.6h-32V169.4z"/>
</g>
<g>
	<g>
		<polygon class="st1" points="61.7,190.5 57.7,190.5 51.5,174 56,174 59.8,185.7 59.9,185.7 63.7,174 68,174 		"/>
	</g>
	<g>
		<rect x="70.6" y="174" class="st1" width="4" height="16.5"/>
	</g>
</g>
<g>
	<g>
		<path class="st1" d="M87.9,190.5l-3.6-6.5H83v6.5h-3.9V174h6.3c0.8,0,1.6,0.1,2.3,0.2c0.8,0.2,1.4,0.4,2,0.8
			c0.6,0.4,1.1,0.9,1.4,1.5c0.4,0.6,0.5,1.4,0.5,2.4c0,1.1-0.3,2.1-0.9,2.8s-1.4,1.3-2.5,1.6l4.3,7h-4.6V190.5z M87.8,179.1
			c0-0.4-0.1-0.7-0.2-0.9s-0.4-0.4-0.6-0.6c-0.3-0.1-0.5-0.2-0.9-0.3c-0.3,0-0.6-0.1-0.9-0.1H83v3.8h1.9c0.3,0,0.7,0,1-0.1
			s0.7-0.2,0.9-0.3c0.3-0.1,0.5-0.3,0.7-0.6C87.7,179.9,87.8,179.5,87.8,179.1z"/>
	</g>
</g>
<g>
	<g>
		<polygon class="st1" points="102.5,177.5 102.5,190.6 98.5,190.6 98.5,177.5 93.9,177.5 93.9,174.1 107.2,174.1 107.2,177.5 		"/>
	</g>
</g>
<g>
	<g>
		<path class="st1" d="M123.5,187c-0.3,0.8-0.8,1.5-1.4,2.1s-1.4,1-2.2,1.4c-0.9,0.3-1.8,0.5-2.9,0.5s-2.1-0.2-2.9-0.5
			c-0.9-0.3-1.6-0.8-2.2-1.4s-1.1-1.3-1.4-2.1s-0.5-1.7-0.5-2.7V174h4v9.9c0,0.4,0.1,0.9,0.2,1.3c0.1,0.4,0.3,0.8,0.5,1.1
			s0.6,0.6,1,0.8s0.9,0.3,1.4,0.3c0.6,0,1-0.1,1.4-0.3s0.7-0.4,1-0.8c0.2-0.3,0.4-0.7,0.5-1.1c0.1-0.4,0.2-0.8,0.2-1.3V174h4v10.3
			C124,185.3,123.9,186.2,123.5,187z"/>
	</g>
</g>
<g>
	<g>
		<path class="st1" d="M139.1,190.5l-1.3-3.2h-6.4l-1.2,3.2H126l6.9-16.5h3.9l6.8,16.5H139.1z M134.7,178.5l-2.1,5.7h4.1
			L134.7,178.5z"/>
	</g>
</g>
<g>
	<g>
		<polygon class="st1" points="146.1,190.5 146.1,174 150.1,174 150.1,187 156.5,187 156.5,190.5 		"/>
	</g>
</g>
<g>
	<g>
		<polygon class="st1" points="165.9,190.5 165.9,174 169.9,174 169.9,187 176.3,187 176.3,190.5 		"/>
	</g>
	<g>
		<path class="st1" d="M190.5,190.5l-1.3-3.2h-6.4l-1.2,3.2h-4.3l6.9-16.5h3.9l6.8,16.5H190.5z M186,178.5l-2.1,5.7h4.1L186,178.5z"
			/>
	</g>
	<g>
		<polygon class="st1" points="207.9,190.5 201.3,179.7 201.2,179.7 201.3,190.5 197.4,190.5 197.4,174 201.9,174 208.5,184.7 
			208.6,184.7 208.5,174 212.4,174 212.4,190.5 		"/>
	</g>
	<g>
		<path class="st1" d="M232.3,182.2c0,1.4-0.3,2.7-0.8,3.7s-1.2,1.9-2.1,2.6c-0.9,0.7-1.9,1.2-3,1.5s-2.2,0.5-3.3,0.5H217V174h6
			c1.2,0,2.3,0.1,3.4,0.4c1.1,0.3,2.1,0.7,3,1.3s1.6,1.5,2.1,2.5C232,179.4,232.3,180.7,232.3,182.2z M228.2,182.2
			c0-0.9-0.2-1.7-0.5-2.3s-0.7-1.1-1.2-1.5s-1.1-0.6-1.7-0.8c-0.6-0.2-1.3-0.2-2-0.2h-2v9.6h1.9c0.7,0,1.4-0.1,2.1-0.2
			c0.7-0.2,1.2-0.4,1.7-0.8c0.5-0.4,0.9-0.9,1.2-1.5S228.2,183.2,228.2,182.2z"/>
	</g>
	<g>
		<polygon class="st1" points="258,190.5 258.1,178.9 258,178.9 253.7,190.5 250.9,190.5 246.7,178.9 246.6,178.9 246.7,190.5 
			243,190.5 243,174 248.7,174 252.4,184.6 252.5,184.6 256.1,174 261.9,174 261.9,190.5 		"/>
	</g>
	<g>
		<path class="st1" d="M277.6,190.5l-1.3-3.2h-6.4l-1.2,3.2h-4.3l6.9-16.5h3.9l6.8,16.5H277.6z M273.2,178.5l-2.1,5.7h4.1
			L273.2,178.5z"/>
	</g>
	<g>
		<polygon class="st1" points="295,190.5 288.4,179.7 288.3,179.7 288.4,190.5 284.5,190.5 284.5,174 289,174 295.6,184.7 
			295.7,184.7 295.6,174 299.5,174 299.5,190.5 		"/>
	</g>
</g>
<g>
	<g>
		<path class="st1" d="M315.2,190.5l-1.3-3.2h-6.4l-1.2,3.2H302l6.9-16.5h3.9l6.8,16.5H315.2z M310.8,178.5l-2.1,5.7h4.1
			L310.8,178.5z"/>
	</g>
</g>
<g>
	<g>
		<path class="st1" d="M333.6,190.5c-1.1,0.3-2.3,0.4-3.5,0.4c-1.3,0-2.5-0.2-3.6-0.6s-2.1-1-2.9-1.8s-1.4-1.7-1.9-2.7
			c-0.5-1.1-0.7-2.2-0.7-3.5s0.2-2.5,0.7-3.6s1.1-2,1.9-2.7c0.8-0.8,1.8-1.3,2.8-1.7c1.1-0.4,2.3-0.6,3.5-0.6c1.3,0,2.5,0.2,3.6,0.6
			c1.1,0.4,2,0.9,2.7,1.6l-2.5,2.9c-0.4-0.4-0.9-0.8-1.5-1.1s-1.4-0.4-2.2-0.4c-0.7,0-1.3,0.1-1.9,0.4s-1.1,0.6-1.5,1.1
			s-0.8,1-1,1.6s-0.4,1.3-0.4,2.1s0.1,1.5,0.3,2.1c0.2,0.6,0.5,1.2,1,1.6c0.4,0.5,1,0.8,1.6,1.1s1.3,0.4,2.2,0.4
			c0.5,0,0.9,0,1.3-0.1s0.8-0.2,1.2-0.3v-3h-3.1v-3.2h6.8v8.7C335.6,189.9,334.7,190.3,333.6,190.5z"/>
	</g>
	<g>
		<polygon class="st1" points="340.8,190.5 340.8,174 351.9,174 351.9,177.3 344.7,177.3 344.7,180.4 351.5,180.4 351.5,183.6 
			344.7,183.6 344.7,187 352.3,187 352.3,190.4 340.8,190.4 		"/>
	</g>
	<g>
		<path class="st1" d="M364.9,190.5l-3.6-6.5H360v6.5h-3.9V174h6.3c0.8,0,1.6,0.1,2.3,0.2c0.8,0.2,1.4,0.4,2,0.8
			c0.6,0.4,1.1,0.9,1.4,1.5c0.4,0.6,0.5,1.4,0.5,2.4c0,1.1-0.3,2.1-0.9,2.8s-1.4,1.3-2.5,1.6l4.3,7h-4.6V190.5z M364.7,179.1
			c0-0.4-0.1-0.7-0.2-0.9c-0.2-0.2-0.4-0.4-0.6-0.6c-0.3-0.1-0.5-0.2-0.9-0.3c-0.3,0-0.6-0.1-0.9-0.1H360v3.8h1.9c0.3,0,0.7,0,1-0.1
			s0.7-0.2,0.9-0.3c0.3-0.1,0.5-0.3,0.7-0.6C364.7,179.9,364.7,179.5,364.7,179.1z"/>
	</g>
</g>
<g>
	<rect x="215.2" y="138.7" width="31.4" height="30.1"/>
	<path class="st2" d="M246.1,139.2v29.1h-30.4v-29.1H246.1 M247.1,138.2h-32.4v31.1h32.4V138.2L247.1,138.2z"/>
</g>
<g>
	<rect x="217.5" y="141.1" class="st3" width="28.6" height="27.5"/>
	<path class="st4" d="M245.1,142.1v25.5h-26.6v-25.5H245.1 M247.1,140.1h-30.6v29.5h30.6V140.1L247.1,140.1z"/>
</g>
</svg>
