<?xml version="1.0" encoding="UTF-8"?>
<svg id="Layer_1" data-name="Layer 1" xmlns="http://www.w3.org/2000/svg" viewBox="0 0 396.71 174.16">
  <defs>
    <style>
      .cls-1 {
        stroke: #ff0100;
        stroke-miterlimit: 10;
      }

      .cls-1, .cls-2 {
        fill: #fff;
      }

      .cls-2, .cls-3 {
        stroke-width: 0px;
      }

      .cls-3 {
        fill: red;
      }
    </style>
  </defs>
  <g>
    <path class="cls-2" d="m89.64,151h-34.9L0,0h39.24l33.46,107h.82L106.77,0h38.6l-55.73,151Z"/>
    <path class="cls-2" d="m140.71,151V0h35v119h54v32h-89Z"/>
    <path class="cls-2" d="m363.71,151l.82-107h-.61l-37.49,107h-26.02l-35.48-107h-1.22v73h-32V0h49.87l33.04,97h.82L347.05,0h49.66v151h-33Z"/>
  </g>
  <g>
    <path class="cls-2" d="m66.35,174h-4.35l-6.81-18h4.8l4.25,13h.1l4.22-13h4.73l-6.94,18Z"/>
    <path class="cls-2" d="m75.71,174v-18h4v18h-4Z"/>
    <path class="cls-2" d="m94.48,174l-3.82-8h-1.96v8h-4v-18h6.43c3.24,0,6.45,1.32,6.45,5.44,0,2.42-1.33,4.14-3.5,4.86l4.4,7.7h-4.01Zm-3.57-15h-2.21v4h1.96c1.33,0,3.01-.34,3.01-2.09,0-1.6-1.53-1.91-2.76-1.91Z"/>
    <path class="cls-2" d="m109.71,160v14h-4v-14h-5v-4h14v4h-5Z"/>
    <path class="cls-2" d="m125.17,174.16c-4.6,0-7.46-2.9-7.46-7.14v-11.01h4v10.66c0,1.9.97,3.65,3.5,3.65s3.5-1.75,3.5-3.65v-10.66h4v11.01c0,4.25-2.97,7.14-7.54,7.14Z"/>
    <path class="cls-2" d="m149.5,174l-1.37-4h-6.84l-1.3,4h-4.82l7.55-18h4.22l7.47,18h-4.91Zm-4.75-13.07l-2.25,6.07h4.45l-2.2-6.07Z"/>
    <path class="cls-2" d="m156.71,174v-18h4v14h7v4h-11Z"/>
    <path class="cls-2" d="m178.71,174v-18h4v14h7v4h-11Z"/>
    <path class="cls-2" d="m206.62,174l-1.37-4h-6.84l-1.3,4h-4.82l7.55-18h4.22l7.47,18h-4.91Zm-4.75-13.07l-2.25,6.07h4.45l-2.2-6.07Z"/>
    <path class="cls-2" d="m224.88,174l-7.1-12h-.07l.1,12h-4.1v-18h4.91l7.01,12h.07l-.1-12h4.1v18h-4.83Z"/>
    <path class="cls-2" d="m239.42,174h-6.71v-18h6.51c5.11,0,10.3,2.14,10.3,8.95,0,6.33-5.14,9.05-10.09,9.05Zm.34-14h-2.05v10h1.96c2.95,0,5.68-1.21,5.68-5.02s-2.73-4.98-5.58-4.98Z"/>
    <path class="cls-2" d="m277.71,174l.1-13h-.61l-4.6,13h-3l-4.47-13h-.42v13h-3v-18h6.01l3.98,11h.1l3.81-11h6.11v18h-4Z"/>
    <path class="cls-2" d="m298.21,174l-1.37-4h-6.84l-1.3,4h-4.81l7.55-18h4.22l7.47,18h-4.91Zm-4.75-13.07l-2.25,6.07h4.45l-2.2-6.07Z"/>
    <path class="cls-2" d="m316.88,174l-7.1-12h-.07l.1,12h-4.1v-18h4.91l7.01,12h.07l-.1-12h4.1v18h-4.83Z"/>
    <path class="cls-2" d="m338.65,174l-1.37-4h-6.84l-1.3,4h-4.82l7.55-18h4.22l7.47,18h-4.91Zm-4.75-13.07l-2.25,6.07h4.45l-2.2-6.07Z"/>
    <path class="cls-2" d="m354.75,173.89c-5.76,0-9.91-3.75-9.91-9.32s4.28-9.29,9.78-9.29c2.83,0,5.45.92,6.96,2.35l-2.75,3.07c-.84-.95-2.29-1.65-4.05-1.65-3.06,0-5.3,2.35-5.3,5.52s1.96,5.57,5.5,5.57c1.02,0,1.96-.15,2.73-.47v-3.67h-3v-3h7v9.37c-1.76.9-4.18,1.52-6.96,1.52Z"/>
    <path class="cls-2" d="m366.71,174v-18h11v4h-7v3h7v3h-7v4h8v4h-12Z"/>
    <path class="cls-2" d="m391.99,174l-3.82-8h-1.46v8h-4v-18h6.43c3.24,0,6.45,1.32,6.45,5.44,0,2.42-1.33,4.14-3.5,4.86l4.4,7.7h-4.5Zm-3.07-15h-2.21v4h1.96c1.33,0,3.01-.34,3.01-2.09,0-1.6-1.53-1.91-2.76-1.91Z"/>
  </g>
  <rect class="cls-1" x="231.71" y="119" width="32" height="32"/>
  <path class="cls-3" d="m240.7,141.9c.14-.36.28-.7.42-1.04.12-.33.25-.66.35-1,.04-.14-.02-.28-.14-.37-.38-.29-.77-.58-1.15-.87-.16-.12-.32-.24-.48-.37-.39-.3-.78-.6-1.17-.9-.61-.46-1.21-.92-1.82-1.38-.43-.32-.85-.64-1.28-.96-.1-.08-.21-.15-.33-.24.23-.1.43-.19.63-.28.24-.11.49-.2.73-.32.34-.17.35-.35.23-.67-.05-.14-.11-.27-.16-.41-.09-.28-.18-.56-.27-.84-.15-.43-.3-.86-.45-1.29-.1-.27-.2-.54-.31-.83.35.07.67.13.99.19.85.17,1.7.34,2.56.51.3.06.45-.03.57-.31.18-.41.36-.82.55-1.22.03-.07.08-.13.14-.23.14.16.28.31.42.46.21.22.42.44.64.65.49.49.98.98,1.46,1.48.07.07.14.13.21.2.16.16.37.21.55.11.21-.11.28-.29.22-.54-.07-.28-.14-.57-.2-.86-.08-.39-.15-.78-.23-1.16-.15-.75-.31-1.5-.46-2.25-.13-.64-.27-1.28-.4-1.92-.01-.06-.02-.11-.03-.19.17.09.32.16.47.24.54.29,1.08.58,1.61.88.26.15.58.06.72-.22.21-.44.45-.86.68-1.29.14-.26.28-.51.42-.77.16-.3.32-.59.48-.89.14-.26.28-.51.42-.77.04-.07.09-.13.16-.24,0,.03,0,.05.02.07.17.33.35.65.53.98.21.4.43.8.64,1.2.14.26.28.51.42.77.16.29.31.58.47.87.05.08.1.16.17.23.13.15.34.18.53.08.28-.15.56-.3.84-.45.43-.23.86-.47,1.29-.7.01,0,.02.01.04.02-.05.22-.12.43-.16.65-.06.26-.1.53-.16.8-.09.44-.17.87-.26,1.31-.14.69-.29,1.39-.43,2.08-.11.54-.22,1.07-.34,1.61-.04.19.02.33.17.44.14.1.34.1.49-.01.07-.05.14-.11.21-.18.38-.39.76-.78,1.14-1.16.29-.29.58-.59.88-.88.21-.21.42-.41.64-.63.03.05.04.09.06.13.2.45.4.9.61,1.36.08.19.27.3.48.26.44-.08.87-.17,1.31-.25.75-.15,1.5-.3,2.28-.45-.03.1-.05.18-.08.27-.08.26-.17.52-.26.78-.16.47-.32.94-.49,1.4-.11.33-.23.65-.34.98-.11.34-.02.51.31.64.42.17.83.36,1.27.55-.12.1-.22.19-.33.27-.2.15-.4.29-.59.44-.54.41-1.08.83-1.62,1.24-.44.33-.88.66-1.31.99-.6.45-1.2.91-1.8,1.36-.18.14-.37.26-.55.4-.16.12-.22.29-.15.49.2.53.4,1.06.61,1.59.05.12.11.23.18.38-.33-.05-.62-.1-.92-.15-1.11-.18-2.22-.36-3.33-.55-.46-.08-.92-.14-1.37-.23-.34-.06-.6.05-.78.34-.04.07-.06.17-.05.25,0,.35.03.7.05,1.04.08,1.39.17,2.77.25,4.16,0,.04,0,.09,0,.14h-1.18c.01-.29.03-.57.04-.85.07-1.25.15-2.5.22-3.74.01-.22.01-.45.04-.67.05-.45-.33-.73-.7-.68-.32.04-.63.1-.94.15-1.06.17-2.12.35-3.19.52-.5.08-1,.17-1.5.25-.02,0-.04,0-.09,0Z"/>
</svg>