<?xml version="1.0" encoding="utf-8"?>
<!-- Generator: Adobe Illustrator 26.0.1, SVG Export Plug-In . SVG Version: 6.00 Build 0)  -->
<svg version="1.1" id="Layer_1" xmlns="http://www.w3.org/2000/svg" xmlns:xlink="http://www.w3.org/1999/xlink" x="0px" y="0px"
	 viewBox="0 0 371 218" style="enable-background:new 0 0 371 218;" xml:space="preserve">
<style type="text/css">
	.st0{enable-background:new    ;}
	.st1{fill:#FFFFFF;}
	.st2{fill:#B3B3B3;stroke:#000000;stroke-miterlimit:10;}
</style>
<g class="st0">
	<path class="st1" d="M83.7,169.5H51.1L0,29h36.6l31.3,99.7h0.8L99.7,29h36L83.7,169.5z"/>
	<path class="st1" d="M131.5,169.5V29h32.8v111h52.2v29.6H131.5z"/>
	<path class="st1" d="M338.9,169.5l0.8-99.5h-0.6L304,169.5h-22.9L247,70.1h-0.6l0.8,99.5h-30.7V29h46.4l30.7,90.1h0.8L323.8,29
		h47.1v140.6H338.9z"/>
</g>
<g class="st0">
	<path class="st1" d="M61.7,190.5h-4l-6.2-16.5H56l3.8,11.7h0.1l3.8-11.7H68L61.7,190.5z"/>
	<path class="st1" d="M70.6,190.5v-16.5h4v16.5H70.6z"/>
</g>
<g class="st0">
	<path class="st1" d="M87.9,190.5l-3.6-6.5H83v6.5h-3.9v-16.5h6.3c0.8,0,1.6,0.1,2.3,0.2c0.8,0.2,1.4,0.4,2,0.8
		c0.6,0.4,1.1,0.9,1.4,1.5c0.4,0.6,0.5,1.4,0.5,2.4c0,1.1-0.3,2.1-0.9,2.8s-1.4,1.3-2.5,1.6l4.3,7H87.9z M87.8,179.1
		c0-0.4-0.1-0.7-0.2-0.9s-0.4-0.4-0.6-0.6c-0.3-0.1-0.5-0.2-0.9-0.3c-0.3,0-0.6-0.1-0.9-0.1H83v3.8h1.9c0.3,0,0.7,0,1-0.1
		c0.3-0.1,0.7-0.2,0.9-0.3c0.3-0.1,0.5-0.3,0.7-0.6C87.7,179.9,87.8,179.5,87.8,179.1z"/>
</g>
<g class="st0">
	<path class="st1" d="M102.5,177.5v13.1h-4v-13.1h-4.6v-3.4h13.3v3.4H102.5z"/>
</g>
<g class="st0">
	<path class="st1" d="M123.5,187c-0.3,0.8-0.8,1.5-1.4,2.1s-1.4,1-2.2,1.4c-0.9,0.3-1.8,0.5-2.9,0.5c-1.1,0-2.1-0.2-2.9-0.5
		c-0.9-0.3-1.6-0.8-2.2-1.4s-1.1-1.3-1.4-2.1c-0.3-0.8-0.5-1.7-0.5-2.7v-10.3h4v9.9c0,0.4,0.1,0.9,0.2,1.3c0.1,0.4,0.3,0.8,0.5,1.1
		c0.2,0.3,0.6,0.6,1,0.8c0.4,0.2,0.9,0.3,1.4,0.3c0.6,0,1-0.1,1.4-0.3c0.4-0.2,0.7-0.4,1-0.8c0.2-0.3,0.4-0.7,0.5-1.1
		c0.1-0.4,0.2-0.8,0.2-1.3v-9.9h4v10.3C124,185.3,123.9,186.2,123.5,187z"/>
</g>
<g class="st0">
	<path class="st1" d="M139.1,190.5l-1.3-3.2h-6.4l-1.2,3.2H126l6.9-16.5h3.9l6.8,16.5H139.1z M134.7,178.5l-2.1,5.7h4.1L134.7,178.5
		z"/>
</g>
<g class="st0">
	<path class="st1" d="M146.1,190.5v-16.5h4v13h6.4v3.5H146.1z"/>
</g>
<g class="st0">
	<path class="st1" d="M165.9,190.5v-16.5h4v13h6.4v3.5H165.9z"/>
	<path class="st1" d="M190.5,190.5l-1.3-3.2h-6.4l-1.2,3.2h-4.3l6.9-16.5h3.9l6.8,16.5H190.5z M186,178.5l-2.1,5.7h4.1L186,178.5z"
		/>
	<path class="st1" d="M207.9,190.5l-6.6-10.8h-0.1l0.1,10.8h-3.9v-16.5h4.5l6.6,10.7h0.1l-0.1-10.7h3.9v16.5H207.9z"/>
	<path class="st1" d="M232.3,182.2c0,1.4-0.3,2.7-0.8,3.7c-0.5,1-1.2,1.9-2.1,2.6c-0.9,0.7-1.9,1.2-3,1.5c-1.1,0.3-2.2,0.5-3.3,0.5
		h-6.1v-16.5h6c1.2,0,2.3,0.1,3.4,0.4c1.1,0.3,2.1,0.7,3,1.3s1.6,1.5,2.1,2.5C232,179.4,232.3,180.7,232.3,182.2z M228.2,182.2
		c0-0.9-0.2-1.7-0.5-2.3c-0.3-0.6-0.7-1.1-1.2-1.5c-0.5-0.4-1.1-0.6-1.7-0.8c-0.6-0.2-1.3-0.2-2-0.2h-2v9.6h1.9
		c0.7,0,1.4-0.1,2.1-0.2c0.7-0.2,1.2-0.4,1.7-0.8c0.5-0.4,0.9-0.9,1.2-1.5C228,183.9,228.2,183.2,228.2,182.2z"/>
	<path class="st1" d="M258,190.5l0.1-11.6H258l-4.3,11.6h-2.8l-4.2-11.6h-0.1l0.1,11.6h-3.7v-16.5h5.7l3.7,10.6h0.1l3.6-10.6h5.8
		v16.5H258z"/>
	<path class="st1" d="M277.6,190.5l-1.3-3.2h-6.4l-1.2,3.2h-4.3l6.9-16.5h3.9l6.8,16.5H277.6z M273.2,178.5l-2.1,5.7h4.1
		L273.2,178.5z"/>
	<path class="st1" d="M295,190.5l-6.6-10.8h-0.1l0.1,10.8h-3.9v-16.5h4.5l6.6,10.7h0.1l-0.1-10.7h3.9v16.5H295z"/>
</g>
<g class="st0">
	<path class="st1" d="M315.2,190.5l-1.3-3.2h-6.4l-1.2,3.2h-4.3l6.9-16.5h3.9l6.8,16.5H315.2z M310.8,178.5l-2.1,5.7h4.1
		L310.8,178.5z"/>
</g>
<g class="st0">
	<path class="st1" d="M333.6,190.5c-1.1,0.3-2.3,0.4-3.5,0.4c-1.3,0-2.5-0.2-3.6-0.6s-2.1-1-2.9-1.8c-0.8-0.8-1.4-1.7-1.9-2.7
		c-0.5-1.1-0.7-2.2-0.7-3.5c0-1.3,0.2-2.5,0.7-3.6c0.5-1.1,1.1-2,1.9-2.7c0.8-0.8,1.8-1.3,2.8-1.7c1.1-0.4,2.3-0.6,3.5-0.6
		c1.3,0,2.5,0.2,3.6,0.6c1.1,0.4,2,0.9,2.7,1.6l-2.5,2.9c-0.4-0.4-0.9-0.8-1.5-1.1s-1.4-0.4-2.2-0.4c-0.7,0-1.3,0.1-1.9,0.4
		s-1.1,0.6-1.5,1.1c-0.4,0.5-0.8,1-1,1.6c-0.2,0.6-0.4,1.3-0.4,2.1c0,0.8,0.1,1.5,0.3,2.1c0.2,0.6,0.5,1.2,1,1.6
		c0.4,0.5,1,0.8,1.6,1.1c0.6,0.3,1.3,0.4,2.2,0.4c0.5,0,0.9,0,1.3-0.1c0.4-0.1,0.8-0.2,1.2-0.3v-3h-3.1v-3.2h6.8v8.7
		C335.6,189.9,334.7,190.3,333.6,190.5z"/>
	<path class="st1" d="M340.8,190.5v-16.5h11.1v3.3h-7.2v3.1h6.8v3.2h-6.8v3.4h7.6v3.4H340.8z"/>
	<path class="st1" d="M364.9,190.5l-3.6-6.5H360v6.5h-3.9v-16.5h6.3c0.8,0,1.6,0.1,2.3,0.2c0.8,0.2,1.4,0.4,2,0.8
		c0.6,0.4,1.1,0.9,1.4,1.5c0.4,0.6,0.5,1.4,0.5,2.4c0,1.1-0.3,2.1-0.9,2.8s-1.4,1.3-2.5,1.6l4.3,7H364.9z M364.7,179.1
		c0-0.4-0.1-0.7-0.2-0.9c-0.2-0.2-0.4-0.4-0.6-0.6c-0.3-0.1-0.5-0.2-0.9-0.3c-0.3,0-0.6-0.1-0.9-0.1H360v3.8h1.9c0.3,0,0.7,0,1-0.1
		c0.3-0.1,0.7-0.2,0.9-0.3c0.3-0.1,0.5-0.3,0.7-0.6C364.7,179.9,364.7,179.5,364.7,179.1z"/>
</g>
<rect x="216" y="140" class="st2" width="30" height="30"/>
</svg>
